<svg width="49" height="49" viewBox="0 0 49 49" fill="none" xmlns="http://www.w3.org/2000/svg">
<path d="M38.2804 46.0944C29.1157 49.0722 19.2524 49.0722 10.0877 46.0944C6.39942 44.8921 3.5075 41.9983 2.30603 38.3075C-0.669718 29.1505 -0.669718 19.2666 2.30603 10.1096C3.5075 6.41886 6.39942 3.52497 10.0877 2.32268C19.2384 -0.655086 29.1157 -0.655086 38.2664 2.32268C41.9547 3.52497 44.8466 6.41886 46.0481 10.1096C49.0238 19.2666 49.0238 29.1505 46.0481 38.3075C44.8606 41.9983 41.9687 44.8921 38.2804 46.0944Z" fill="url(#paint0_linear_621_9932)"/>
<path d="M46.145 10.0797C44.9435 6.37494 42.0097 3.43911 38.3075 2.23682C38.0141 2.13896 37.7207 2.0411 37.4134 1.95722C33.1244 0.657066 28.6817 0 24.1832 0C19.6846 0 15.242 0.657066 10.953 1.95722C10.6596 2.0411 10.3662 2.13896 10.0728 2.23682C6.37061 3.43911 3.43678 6.37494 2.2353 10.0797C0.754414 14.6512 0 19.4044 0 24.2136C0 29.0227 0.754414 33.776 2.2353 38.3475C3.43678 42.0522 6.37061 44.988 10.0728 46.1903C14.6412 47.6722 19.3912 48.4271 24.1971 48.4271C29.003 48.4271 33.7531 47.6722 38.3215 46.1903C42.0237 44.988 44.9575 42.0522 46.159 38.3475C47.6399 33.776 48.3943 29.0227 48.3943 24.2136C48.3943 19.4044 47.6259 14.6512 46.145 10.0797ZM24.1832 48.2454C19.4052 48.2454 14.6692 47.4905 10.1147 46.0086C6.4684 44.8203 3.57648 41.9264 2.38898 38.2776C0.908091 33.7201 0.153677 28.9948 0.153677 24.1996C0.153677 19.4184 0.908091 14.6791 2.38898 10.1216C3.59045 6.48678 6.4684 3.59289 10.1147 2.40458C10.4081 2.30672 10.6875 2.22284 10.9809 2.13896C15.2559 0.838807 19.6986 0.181742 24.1832 0.181742C28.6538 0.181742 33.0825 0.838807 37.3715 2.13896C37.6648 2.22284 37.9582 2.3207 38.2516 2.41856C41.8979 3.60687 44.7899 6.50076 45.9774 10.1496C47.4583 14.7071 48.2127 19.4324 48.2127 24.2276C48.2127 29.0088 47.4583 33.748 45.9774 38.3055C45.3906 40.1369 44.3707 41.7726 43.0435 43.0867C41.7163 44.4148 40.0818 45.4354 38.2656 46.0226C33.6972 47.4905 28.9611 48.2454 24.1832 48.2454Z" fill="white"/>
<path d="M45.5746 38.1544L45.575 38.153C48.5181 29.0964 48.5181 19.3207 45.575 10.2641C44.4229 6.72534 41.6501 3.95077 38.1139 2.79806C29.0638 -0.146906 19.295 -0.146879 10.2448 2.79814C6.7088 3.9509 3.93606 6.72542 2.78399 10.2641C-0.15909 19.3206 -0.159117 29.0963 2.78391 38.1527L45.5746 38.1544ZM45.5746 38.1544C44.4364 41.6918 41.6643 44.4663 38.1279 45.6191C29.0637 48.564 19.3089 48.564 10.2448 45.6189M45.5746 38.1544L10.2448 45.6189M10.2448 45.6189C6.70876 44.4662 3.93605 41.6917 2.78399 38.153L10.2448 45.6189Z" fill="url(#paint1_linear_621_9932)" stroke="#F3F3F3"/>
<path d="M19.2702 14.2503C18.9893 14.2442 18.7136 14.3256 18.4812 14.4833C18.2488 14.6411 18.0714 14.8675 17.9736 15.1308C17.8757 15.3941 17.8624 15.6813 17.9354 15.9526C18.0083 16.2238 18.164 16.4655 18.3807 16.6441L26.6498 23.7282L18.3807 30.8097C18.2308 30.9199 18.1052 31.0598 18.0119 31.2207C17.9186 31.3817 17.8595 31.5602 17.8383 31.7451C17.8172 31.9299 17.8344 32.1171 17.889 32.295C17.9436 32.4729 18.0343 32.6376 18.1554 32.7788C18.2766 32.92 18.4256 33.0345 18.5931 33.1155C18.7606 33.1964 18.9431 33.2419 19.129 33.2491C19.3149 33.2562 19.5003 33.225 19.6735 33.1572C19.8468 33.0895 20.0042 32.9866 20.1359 32.8552L29.6033 24.7549C29.7519 24.628 29.8713 24.4705 29.9532 24.293C30.0351 24.1156 30.0774 23.9224 30.0774 23.7269C30.0774 23.5315 30.0351 23.3383 29.9532 23.1608C29.8713 22.9833 29.7519 22.8257 29.6033 22.6988L20.1359 14.5907C19.8967 14.3783 19.59 14.2579 19.2702 14.2503Z" fill="#34A6DE"/>
<defs>
<linearGradient id="paint0_linear_621_9932" x1="-9.21042" y1="2.44208" x2="51.7546" y2="42.1296" gradientUnits="userSpaceOnUse">
<stop offset="0.1381" stop-color="white"/>
<stop offset="0.3352" stop-color="#ECEEF5"/>
<stop offset="0.5631" stop-color="#DEE1EE"/>
<stop offset="0.7546" stop-color="#D9DCEB"/>
<stop offset="0.9221" stop-color="#CDD2E5"/>
</linearGradient>
<linearGradient id="paint1_linear_621_9932" x1="11.0759" y1="7.69445" x2="124.381" y2="122.183" gradientUnits="userSpaceOnUse">
<stop stop-color="white"/>
<stop offset="1" stop-color="white" stop-opacity="0"/>
</linearGradient>
</defs>
</svg>
